<svg
    width="28"
    height="30"
    viewBox="0 0 28 30"
    fill="none"
    xmlns="http://www.w3.org/2000/svg"
>
    <path
    d="M7.72625 29.04C7.67292 28.64 7.67292 28.2133 7.72625 27.76C9.05958 27.6267 10.0063 27.5067 10.5663 27.4C11.1263 27.2667 11.4729 27 11.6063 26.6C11.7396 26.2 11.8063 25.52 11.8063 24.56V2.72H8.92625C7.51292 2.72 6.39292 2.92 5.56625 3.32C4.76625 3.69333 4.11292 4.26667 3.60625 5.04C3.12625 5.81333 2.64625 6.8 2.16625 8C1.73958 8.05333 1.31292 8.05333 0.88625 8C1.04625 6.72 1.19292 5.49333 1.32625 4.32C1.48625 3.14667 1.61958 2.01333 1.72625 0.919999C3.45958 1.02667 5.37958 1.09333 7.48625 1.12C9.59292 1.12 11.7796 1.12 14.0463 1.12C16.3396 1.12 18.5396 1.12 20.6463 1.12C22.7796 1.09333 24.6996 1.02667 26.4063 0.919999C26.5129 1.98666 26.6196 3.12 26.7263 4.32C26.8329 5.49333 26.9663 6.72 27.1263 8C26.6729 8.05333 26.2329 8.05333 25.8063 8C25.2996 6.77333 24.7929 5.77333 24.2863 5C23.7796 4.22667 23.1263 3.65333 22.3263 3.28C21.5529 2.90667 20.4596 2.72 19.0463 2.72H16.2063V24.04C16.2063 24.8667 16.2329 25.52 16.2863 26C16.3396 26.48 16.4863 26.8267 16.7263 27.04C16.9929 27.2533 17.4063 27.4133 17.9663 27.52C18.5263 27.6 19.2996 27.68 20.2863 27.76C20.3663 28.1867 20.3663 28.6133 20.2863 29.04C19.7263 29.04 19.0463 29.0267 18.2463 29C17.4729 29 16.6996 29 15.9263 29C15.1529 28.9733 14.4996 28.96 13.9663 28.96C13.4596 28.96 12.8196 28.9733 12.0463 29C11.2996 29 10.5263 29 9.72625 29C8.95292 29.0267 8.28625 29.04 7.72625 29.04Z"
    fill="black"
    />
</svg>